<?xml version="1.0" standalone="no"?><!DOCTYPE svg PUBLIC "-//W3C//DTD SVG 1.1//EN" "http://www.w3.org/Graphics/SVG/1.1/DTD/svg11.dtd"><svg t="1497006265829" class="icon" style="" viewBox="0 0 1024 1024" version="1.1" xmlns="http://www.w3.org/2000/svg" p-id="4323" xmlns:xlink="http://www.w3.org/1999/xlink" width="16" height="16"><defs><style type="text/css">html, * { user-select: text !important; }
</style></defs><path d="M813.727 406.147l-87.369 0L726.358 299.102c0 0 19.184-213.94-214.357-213.94 0 0-211.855 0-211.855 215.191l0 105.794-89.872 0c-24.275 0-44.136 19.861-44.136 44.136l0 444.417c0 24.275 19.861 44.138 44.136 44.138l603.453 0c24.275 0 44.136-19.863 44.136-44.138L857.863 450.283C857.863 426.009 838.001 406.147 813.727 406.147zM379.382 406.147 379.382 300.353c0 0-1.668-135.12 136.788-135.12 0 0 130.533-4.17 130.533 133.452l0 107.462L379.382 406.147z" p-id="4324" fill="#515151"></path></svg>